<svg width="400" height="400" viewBox="0 0 400 400" fill="none" xmlns="http://www.w3.org/2000/svg">
<path d="M310 0H90C40.2944 0 0 40.2944 0 90V310C0 359.706 40.2944 400 90 400H310C359.706 400 400 359.706 400 310V90C400 40.2944 359.706 0 310 0Z" fill="#6D28D9"/>
<mask id="mask0_2_29" style="mask-type:luminance" maskUnits="userSpaceOnUse" x="0" y="0" width="400" height="400">
<path d="M310 0H90C40.2944 0 0 40.2944 0 90V310C0 359.706 40.2944 400 90 400H310C359.706 400 400 359.706 400 310V90C400 40.2944 359.706 0 310 0Z" fill="white"/>
</mask>
<g mask="url(#mask0_2_29)">
<path d="M100 220C180.081 220 245 166.274 245 100C245 33.7258 180.081 -20 100 -20C19.9187 -20 -45 33.7258 -45 100C-45 166.274 19.9187 220 100 220Z" fill="#7C3AED"/>
</g>
<mask id="mask1_2_29" style="mask-type:luminance" maskUnits="userSpaceOnUse" x="0" y="0" width="400" height="400">
<path d="M310 0H90C40.2944 0 0 40.2944 0 90V310C0 359.706 40.2944 400 90 400H310C359.706 400 400 359.706 400 310V90C400 40.2944 359.706 0 310 0Z" fill="white"/>
</mask>
<g mask="url(#mask1_2_29)">
<path d="M360 470C442.843 470 510 411.797 510 340C510 268.203 442.843 210 360 210C277.157 210 210 268.203 210 340C210 411.797 277.157 470 360 470Z" fill="#4C1D95"/>
</g>
<mask id="mask2_2_29" style="mask-type:luminance" maskUnits="userSpaceOnUse" x="0" y="0" width="400" height="400">
<path d="M310 0H90C40.2944 0 0 40.2944 0 90V310C0 359.706 40.2944 400 90 400H310C359.706 400 400 359.706 400 310V90C400 40.2944 359.706 0 310 0Z" fill="white"/>
</mask>
<g mask="url(#mask2_2_29)">
<path opacity="0.45" d="M350 145C405.228 145 450 106.944 450 60C450 13.0558 405.228 -25 350 -25C294.772 -25 250 13.0558 250 60C250 106.944 294.772 145 350 145Z" fill="#8B5CF6"/>
</g>
<mask id="mask3_2_29" style="mask-type:luminance" maskUnits="userSpaceOnUse" x="0" y="0" width="400" height="400">
<path d="M310 0H90C40.2944 0 0 40.2944 0 90V310C0 359.706 40.2944 400 90 400H310C359.706 400 400 359.706 400 310V90C400 40.2944 359.706 0 310 0Z" fill="white"/>
</mask>
<g mask="url(#mask3_2_29)">
<path opacity="0.6" d="M30 450C90.7513 450 140 409.706 140 360C140 310.294 90.7513 270 30 270C-30.7513 270 -80 310.294 -80 360C-80 409.706 -30.7513 450 30 450Z" fill="#3B0764"/>
</g>
<path opacity="0.95" d="M122 170C134.15 170 144 160.15 144 148C144 135.85 134.15 126 122 126C109.85 126 100 135.85 100 148C100 160.15 109.85 170 122 170Z" fill="white"/>
<path opacity="0.95" d="M200 170C212.15 170 222 160.15 222 148C222 135.85 212.15 126 200 126C187.85 126 178 135.85 178 148C178 160.15 187.85 170 200 170Z" fill="white"/>
<path opacity="0.95" d="M278 170C290.15 170 300 160.15 300 148C300 135.85 290.15 126 278 126C265.85 126 256 135.85 256 148C256 160.15 265.85 170 278 170Z" fill="white"/>
<path opacity="0.22" d="M122 234C134.15 234 144 224.15 144 212C144 199.85 134.15 190 122 190C109.85 190 100 199.85 100 212C100 224.15 109.85 234 122 234Z" fill="white"/>
<path opacity="0.22" d="M200 234C212.15 234 222 224.15 222 212C222 199.85 212.15 190 200 190C187.85 190 178 199.85 178 212C178 224.15 187.85 234 200 234Z" fill="white"/>
<path opacity="0.22" d="M278 234C290.15 234 300 224.15 300 212C300 199.85 290.15 190 278 190C265.85 190 256 199.85 256 212C256 224.15 265.85 234 278 234Z" fill="white"/>
<path d="M98.6863 281.759V271.364H147.665V281.759H129.407V331H116.944V281.759H98.6863ZM192.567 271.364H205.176V310.092C205.176 314.441 204.137 318.246 202.06 321.507C200.002 324.768 197.119 327.312 193.411 329.136C189.704 330.942 185.384 331.844 180.453 331.844C175.503 331.844 171.174 330.942 167.466 329.136C163.758 327.312 160.876 324.768 158.818 321.507C156.76 318.246 155.731 314.441 155.731 310.092V271.364H168.34V309.015C168.34 311.286 168.835 313.305 169.825 315.072C170.834 316.838 172.251 318.226 174.076 319.236C175.901 320.245 178.027 320.75 180.453 320.75C182.899 320.75 185.025 320.245 186.831 319.236C188.655 318.226 190.063 316.838 191.053 315.072C192.062 313.305 192.567 311.286 192.567 309.015V271.364ZM215.549 331V271.364H255.035V281.759H228.158V295.969H252.415V306.365H228.158V331H215.549ZM266.348 331H252.837L273.424 271.364H289.673L310.231 331H296.72L281.781 284.991H281.315L266.348 331ZM265.504 307.559H297.418V317.401H265.504V307.559Z" fill="white"/>
<path d="M94.6863 277.759V267.364H143.665V277.759H125.407V327H112.944V277.759H94.6863ZM188.567 267.364H201.176V306.092C201.176 310.441 200.137 314.246 198.06 317.507C196.002 320.768 193.119 323.312 189.411 325.136C185.704 326.942 181.384 327.844 176.453 327.844C171.503 327.844 167.174 326.942 163.466 325.136C159.758 323.312 156.876 320.768 154.818 317.507C152.76 314.246 151.731 310.441 151.731 306.092V267.364H164.34V305.015C164.34 307.286 164.835 309.305 165.825 311.072C166.834 312.838 168.251 314.226 170.076 315.236C171.901 316.245 174.027 316.75 176.453 316.75C178.899 316.75 181.025 316.245 182.831 315.236C184.655 314.226 186.063 312.838 187.053 311.072C188.062 309.305 188.567 307.286 188.567 305.015V267.364ZM211.549 327V267.364H251.035V277.759H224.158V291.969H248.415V302.365H224.158V327H211.549ZM262.348 327H248.837L269.424 267.364H285.673L306.231 327H292.72L277.781 280.991H277.315L262.348 327ZM261.504 303.559H293.418V313.401H261.504V303.559Z" fill="white"/>
</svg>
