<svg width="395" height="400" viewBox="0 0 395 400" fill="none" xmlns="http://www.w3.org/2000/svg">
<path d="M305.897 0H88.8088C39.7611 0 0 40.2944 0 90V310C0 359.706 39.7611 400 88.8088 400H305.897C354.945 400 394.706 359.706 394.706 310V90C394.706 40.2944 354.945 0 305.897 0Z" fill="#6D28D9"/>
<mask id="mask0_2_2" style="mask-type:luminance" maskUnits="userSpaceOnUse" x="0" y="0" width="395" height="400">
<path d="M305.897 0H88.8088C39.7611 0 0 40.2944 0 90V310C0 359.706 39.7611 400 88.8088 400H305.897C354.945 400 394.706 359.706 394.706 310V90C394.706 40.2944 354.945 0 305.897 0Z" fill="white"/>
</mask>
<g mask="url(#mask0_2_2)">
<path d="M98.6765 220C177.698 220 241.757 166.274 241.757 100C241.757 33.7258 177.698 -20 98.6765 -20C19.6551 -20 -44.4044 33.7258 -44.4044 100C-44.4044 166.274 19.6551 220 98.6765 220Z" fill="#7C3AED"/>
</g>
<mask id="mask1_2_2" style="mask-type:luminance" maskUnits="userSpaceOnUse" x="0" y="0" width="395" height="400">
<path d="M305.897 0H88.8088C39.7611 0 0 40.2944 0 90V310C0 359.706 39.7611 400 88.8088 400H305.897C354.945 400 394.706 359.706 394.706 310V90C394.706 40.2944 354.945 0 305.897 0Z" fill="white"/>
</mask>
<g mask="url(#mask1_2_2)">
<path d="M355.235 470C436.982 470 503.25 411.797 503.25 340C503.25 268.203 436.982 210 355.235 210C273.489 210 207.221 268.203 207.221 340C207.221 411.797 273.489 470 355.235 470Z" fill="#4C1D95"/>
</g>
<mask id="mask2_2_2" style="mask-type:luminance" maskUnits="userSpaceOnUse" x="0" y="0" width="395" height="400">
<path d="M305.897 0H88.8088C39.7611 0 0 40.2944 0 90V310C0 359.706 39.7611 400 88.8088 400H305.897C354.945 400 394.706 359.706 394.706 310V90C394.706 40.2944 354.945 0 305.897 0Z" fill="white"/>
</mask>
<g mask="url(#mask2_2_2)">
<path opacity="0.45" d="M345.368 145C399.865 145 444.044 106.944 444.044 60C444.044 13.0558 399.865 -25 345.368 -25C290.87 -25 246.691 13.0558 246.691 60C246.691 106.944 290.87 145 345.368 145Z" fill="#8B5CF6"/>
</g>
<mask id="mask3_2_2" style="mask-type:luminance" maskUnits="userSpaceOnUse" x="0" y="0" width="395" height="400">
<path d="M305.897 0H88.8088C39.7611 0 0 40.2944 0 90V310C0 359.706 39.7611 400 88.8088 400H305.897C354.945 400 394.706 359.706 394.706 310V90C394.706 40.2944 354.945 0 305.897 0Z" fill="white"/>
</mask>
<g mask="url(#mask3_2_2)">
<path opacity="0.6" d="M29.603 450C89.5502 450 138.147 409.706 138.147 360C138.147 310.294 89.5502 270 29.603 270C-30.3443 270 -78.9411 310.294 -78.9411 360C-78.9411 409.706 -30.3443 450 29.603 450Z" fill="#3B0764"/>
</g>
<path opacity="0.95" d="M75.7441 184.2C94.6874 184.2 110.044 168.637 110.044 149.44C110.044 130.243 94.6874 114.68 75.7441 114.68C56.8008 114.68 41.4442 130.243 41.4442 149.44C41.4442 168.637 56.8008 184.2 75.7441 184.2Z" fill="white"/>
<path opacity="0.95" d="M197.353 184.2C216.296 184.2 231.653 168.637 231.653 149.44C231.653 130.243 216.296 114.68 197.353 114.68C178.41 114.68 163.053 130.243 163.053 149.44C163.053 168.637 178.41 184.2 197.353 184.2Z" fill="white"/>
<path opacity="0.95" d="M318.962 184.2C337.905 184.2 353.262 168.637 353.262 149.44C353.262 130.243 337.905 114.68 318.962 114.68C300.019 114.68 284.662 130.243 284.662 149.44C284.662 168.637 300.019 184.2 318.962 184.2Z" fill="white"/>
<path opacity="0.22" d="M75.7441 285.32C94.6874 285.32 110.044 269.757 110.044 250.56C110.044 231.363 94.6874 215.8 75.7441 215.8C56.8008 215.8 41.4442 231.363 41.4442 250.56C41.4442 269.757 56.8008 285.32 75.7441 285.32Z" fill="white"/>
<path opacity="0.22" d="M197.353 285.32C216.296 285.32 231.653 269.757 231.653 250.56C231.653 231.363 216.296 215.8 197.353 215.8C178.41 215.8 163.053 231.363 163.053 250.56C163.053 269.757 178.41 285.32 197.353 285.32Z" fill="white"/>
<path opacity="0.22" d="M318.962 285.32C337.905 285.32 353.262 269.757 353.262 250.56C353.262 231.363 337.905 215.8 318.962 215.8C300.019 215.8 284.662 231.363 284.662 250.56C284.662 269.757 300.019 285.32 318.962 285.32Z" fill="white"/>
</svg>
